# xmcd
#
# Track frame offsets: 
#        150
#        18678
#        33132
#        46740
#        67019
#        85617
#        104791
#        123525
#        145925
#        164300
#        178323
#        197990
#
# Disc length: 2890 seconds
#
# Revision: 0
# Processed by: cddbd v1.5.2PL0 Copyright (c) Steve Scherf et al.
# Submitted via: ExactAudioCopy v0.99pb4
#
DISCID=ac0b480c
DTITLE=Mark Erelli and Jeffrey Foucault - Seven Curses
DYEAR=2010
DGENRE=Country
TTITLE0=Philadelphia Lawyer
TTITLE1=Johnny 99
TTITLE2=Tom Medrritt
TTITLE3=Bill Gray
TTITLE4=Louise
TTITLE5=Pretty Polly
TTITLE6=Sonoras Death Row
TTITLE7=Ellis Unit 1
TTITLE8=Cole Durhew
TTITLE9=The First Mrs Jones
TTITLE10=Powderfinger
TTITLE11=Wyoming Wind
EXTD=
EXTT0=
EXTT1=
EXTT2=
EXTT3=
EXTT4=
EXTT5=
EXTT6=
EXTT7=
EXTT8=
EXTT9=
EXTT10=
EXTT11=
PLAYORDER=
